<svg width="16" height="16" viewBox="0 0 16 16" fill="none" xmlns="http://www.w3.org/2000/svg">
<g clip-path="url(#clip0_7_936)">
<path d="M14.9159 11.3744C14.2249 10.1805 13.2314 9.17908 12.0427 8.47864C11.5632 8.19604 11.0564 7.96594 10.5315 7.79016C11.6012 7.00464 12.2968 5.7384 12.2968 4.3125C12.2968 1.93457 10.3623 0 7.98434 0C5.60641 0 3.67184 1.93457 3.67184 4.3125C3.67184 5.7384 4.36765 7.00464 5.43723 7.79016C4.91232 7.96594 4.40549 8.19617 3.92599 8.47864C2.73727 9.1792 1.74374 10.1805 1.05283 11.3745C0.940643 11.5681 0.940643 11.8069 1.05283 12.0006C2.4437 14.4039 5.0383 16 7.98434 16C10.9299 16 13.5247 14.4044 14.916 12.0006C15.028 11.8069 15.028 11.5681 14.9159 11.3744ZM4.92184 4.3125C4.92184 2.62378 6.29562 1.25 7.98434 1.25C9.67307 1.25 11.0468 2.62378 11.0468 4.3125C11.0468 6.00122 9.67307 7.375 7.98434 7.375C6.29562 7.375 4.92184 6.00122 4.92184 4.3125ZM7.98434 14.75C5.69919 14.75 3.57944 13.6018 2.32748 11.6875C2.8967 10.8171 3.66269 10.0847 4.56064 9.55554C5.59384 8.94678 6.77768 8.625 7.98434 8.625C9.19101 8.625 10.3748 8.94678 11.4081 9.55554C12.306 10.0847 13.0721 10.8173 13.6413 11.6875C12.391 13.5994 10.2722 14.75 7.98434 14.75Z" fill="white"/>
</g>
<defs>
<clipPath id="clip0_7_936">
<rect width="16" height="16" fill="white"/>
</clipPath>
</defs>
</svg>
