<svg width="20" height="20" viewBox="0 0 20 20" fill="none" xmlns="http://www.w3.org/2000/svg">
<g clip-path="url(#clip0_1_1209)">
<path d="M18.6449 14.218C17.7813 12.7257 16.5393 11.4738 15.0534 10.5983C14.4541 10.2451 13.8205 9.95743 13.1644 9.7377C14.5015 8.7558 15.3711 7.173 15.3711 5.39062C15.3711 2.41821 12.9529 0 9.98051 0C7.00809 0 4.58988 2.41821 4.58988 5.39062C4.58988 7.173 5.45963 8.7558 6.79661 9.7377C6.14048 9.95743 5.50694 10.2452 4.90757 10.5983C3.42167 11.474 2.17976 12.7257 1.31611 14.2181C1.17588 14.4601 1.17588 14.7586 1.31611 15.0008C3.0547 18.0049 6.29795 20 9.98051 20C13.6625 20 16.906 18.0055 18.6451 15.0008C18.7851 14.7586 18.7851 14.4601 18.6449 14.218ZM6.15238 5.39062C6.15238 3.27972 7.86961 1.5625 9.98051 1.5625C12.0914 1.5625 13.8086 3.27972 13.8086 5.39062C13.8086 7.50153 12.0914 9.21875 9.98051 9.21875C7.86961 9.21875 6.15238 7.50153 6.15238 5.39062ZM9.98051 18.4375C7.12406 18.4375 4.47437 17.0023 2.90943 14.6094C3.62095 13.5214 4.57844 12.6059 5.70087 11.9444C6.99238 11.1835 8.47218 10.7812 9.98051 10.7812C11.4888 10.7812 12.9686 11.1835 14.2601 11.9444C15.3826 12.6059 16.3402 13.5216 17.0517 14.6094C15.4888 16.9992 12.8403 18.4375 9.98051 18.4375Z" fill="#231F20"/>
</g>
<defs>
<clipPath id="clip0_1_1209">
<rect width="20" height="20" fill="white"/>
</clipPath>
</defs>
</svg>
